<svg width="43" height="36" viewBox="0 0 43 36" fill="none" xmlns="http://www.w3.org/2000/svg">
<path fill-rule="evenodd" clip-rule="evenodd" d="M18.1134 0.404493C15.5582 1.56122 14.7043 4.21408 15.6503 8.05708C16.5072 11.5384 15.9082 12.6569 12.7414 13.4887C8.29991 14.6556 5.5078 16.0902 3.12686 18.4289C0.80689 20.7077 0.140762 22.0719 0.0168653 24.7979C-0.109746 27.5887 0.467532 29.472 2.05869 31.4596C3.91171 33.7745 5.78249 34.701 10.2304 35.5062C12.2989 35.8805 12.8337 35.8509 14.4034 35.2747C16.175 34.6247 17.0724 33.5675 18.3175 30.6648C21.0408 24.3159 20.89 23.7673 16.4447 23.8535C13.7422 23.906 13.0144 23.7232 12.428 22.8454C11.8206 21.9363 12.1624 20.9699 13.7555 19.0912C15.5323 16.9959 16.5408 16.4093 18.3656 16.4093C19.7117 16.4093 19.7978 16.45 21.1775 17.7408C22.9621 19.4108 23.5068 19.4554 24.8598 18.0435C25.4023 17.4777 26.2348 16.6061 26.7101 16.1067C27.1865 15.6063 27.8106 15.1989 28.1006 15.1989C30.1077 15.1989 32.6507 18.54 32.9726 21.5998C33.1031 22.8413 33.0654 22.9633 32.3232 23.6913C31.5717 24.4284 31.4693 24.4577 30.1202 24.3193C29.3421 24.2396 27.9881 23.9537 27.1114 23.6842C26.2348 23.4148 25.2399 23.1945 24.9006 23.1947C23.5453 23.1962 23.5493 23.1785 23.4656 29.5775L23.3881 35.5011L23.9504 35.7962C24.363 36.0129 25.6059 36.0506 28.6345 35.9386C32.6446 35.7902 33.677 35.651 36.5004 34.8792C38.9581 34.2071 42.1769 32.2861 42.1769 31.4911C42.1769 31.309 42.3564 30.8916 42.5753 30.5636C42.8253 30.1893 42.983 29.403 42.9983 28.4537C43.0188 27.199 42.8608 26.5744 42.074 24.7986C40.431 21.0907 38.7313 18.5446 35.7874 15.3809C34.8276 14.3491 33.9707 13.226 33.8833 12.8849C33.5913 11.7432 33.9378 10.2158 34.7525 9.05427C36.8025 6.13171 36.7132 3.79938 34.4788 1.91492C32.9829 0.653366 31.26 0.203555 32.402 1.37287C32.7778 1.75756 33.1912 2.53492 33.3208 3.10045C33.5259 3.99572 33.4835 4.23515 32.9923 4.95538C32.6821 5.41027 31.7257 6.27818 30.8676 6.88414C30.0092 7.4901 28.6209 8.61221 27.7825 9.37746C26.0487 10.9603 25.3468 11.3851 24.8041 11.1811C24.4168 11.0353 21.3177 7.3906 19.6135 5.07666C18.4409 3.4849 18.2306 2.17735 18.9345 0.854788C19.4871 -0.183795 19.4536 -0.202195 18.1134 0.404493Z" fill="#F1F6F9"/>
</svg>
